#!OML:ASF F:\VICON\USERDATA\INSTALL\rory3\rory3.ASF
:FULLY-SPECIFIED
:DEGREES
1850
root 1.72558 9.75401 -5.58057 -198.034 174.661 -181.198
lowerback 28.6493 1.7244 -2.73454
upperback 10.9556 1.561 0.287129
thorax -3.5775 0.720627 1.40552
lowerneck -18.8092 0.894882 -10.293
upperneck 29.4648 4.54718 0.95655
head 12.7537 0.986749 2.85318
rclavicle -7.55382e-015 -1.51076e-014
rhumerus -35.7547 32.9398 -84.6725
rradius 95.2647
rwrist 43.4814
rhand -46.6776 21.2714
rfingers 7.12502
rthumb -19.3973 -7.78109
lclavicle -7.55382e-015 -1.51076e-014
lhumerus -28.9749 -26.3197 86.8611
lradius 88.3383
lwrist -18.6216
lhand -38.1999 10.3628
lfingers 7.12502
lthumb -11.2321 40.0421
rfemur -76.3816 -12.8158 24.8476
rtibia 108.636
rfoot -7.10865 5.07535
rtoes 7.315
lfemur -74.3443 16.389 -13.5132
ltibia 110.936
lfoot -14.6049 -17.1398
ltoes -9.0195
1851
root 1.71879 9.74971 -5.57698 -198.098 174.606 -181.222
lowerback 28.6846 1.61572 -2.60696
upperback 10.9723 1.463 0.40457
thorax -3.57185 0.672667 1.49119
lowerneck -18.4515 0.832319 -10.4545
upperneck 28.9649 4.3544 1.19456
head 12.475 0.945197 2.92056
rclavicle -1.78906e-015 2.50469e-014
rhumerus -35.46 32.9976 -84.5766
rradius 95.0336
rwrist 44.7589
rhand -47.1999 20.0819
rfingers 7.12502
rthumb -19.8995 -8.91933
lclavicle -1.78906e-015 2.50469e-014
lhumerus -29.1038 -26.1439 86.9629
lradius 88.4034
lwrist -18.2948
lhand -38.3524 10.1316
lfingers 7.12502
lthumb -11.3792 39.8028
rfemur -76.3627 -12.6864 24.6912
rtibia 108.696
rfoot -6.93548 4.97501
rtoes 8.05305
lfemur -74.4593 16.3581 -13.546
ltibia 111.04
lfoot -14.4186 -16.981
ltoes -9.18008
1852
root 1.71201 9.75122 -5.57518 -198.172 174.476 -181.186
lowerback 28.7623 1.53586 -2.40861
upperback 10.9467 1.41649 0.468605
thorax -3.63315 0.654614 1.46063
lowerneck -18.3452 0.893755 -10.1714
upperneck 28.836 4.3521 1.11815
head 12.4072 0.972538 2.83841
rclavicle 3.37934e-015 -2.24627e-014
rhumerus -35.3586 32.8106 -84.6216
rradius 95.8338
rwrist 42.2132
rhand -45.9914 24.3126
rfingers 7.12502
rthumb -18.7374 -4.80497
lclavicle 3.37934e-015 -2.24627e-014
lhumerus -29.2347 -26.2202 87.0373
lradius 88.4933
lwrist -18.1067
lhand -38.3523 10.1712
lfingers 7.12502
lthumb -11.3791 39.8425
rfemur -76.2208 -12.6227 24.4456
rtibia 108.723
rfoot -6.75209 5.17274
rtoes 9.20999
lfemur -74.5201 16.2117 -13.7066
ltibia 111.128
lfoot -14.0348 -16.7625
ltoes -9.30337
1853
root 1.70493 9.74864 -5.56916 -198.152 174.382 -181.157
lowerback 28.7124 1.50034 -2.2618
upperback 10.8761 1.41983 0.596481
thorax -3.69057 0.658492 1.51568
lowerneck -18.0054 0.851342 -10.1683
upperneck 28.6261 4.19641 1.23813
head 12.2579 0.934019 2.84796
rclavicle 1.71949e-014 1.39149e-015
rhumerus -35.5488 32.7649 -84.726
rradius 95.929
rwrist 43.1359
rhand -46.5727 22.0672
rfingers 7.12502
rthumb -19.2964 -6.9954
lclavicle 1.71949e-014 1.39149e-015
lhumerus -29.5469 -26.3294 87.3084
lradius 88.6691
lwrist -18.1676
lhand -38.5853 10.4163
lfingers 7.12502
lthumb -11.6038 40.075
rfemur -76.2134 -12.5332 24.2936
rtibia 108.787
rfoot -6.66344 5.39234
rtoes 8.62464
lfemur -74.7535 16.1195 -13.9175
ltibia 111.282
lfoot -13.348 -16.4393
ltoes -9.47083
1854
root 1.69881 9.74396 -5.56306 -198.08 174.26 -181.106
lowerback 28.6764 1.45075 -2.22526
upperback 10.8206 1.38123 0.806018
thorax -3.73894 0.63703 1.7368
lowerneck -18.1085 0.860651 -10.2763
upperneck 28.7191 4.2378 1.31753
head 12.3089 0.946436 2.90686
rclavicle -3.03147e-015 6.95746e-016
rhumerus -35.4073 32.8832 -84.4721
rradius 96.1009
rwrist 43.2238
rhand -46.2463 21.2046
rfingers 7.12502
rthumb -18.9826 -7.88909
lclavicle -3.03147e-015 6.95746e-016
lhumerus -29.6567 -26.3 87.67
lradius 88.7
lwrist -18.3009
lhand -38.7804 10.5421
lfingers 7.12502
lthumb -11.7919 40.1902
rfemur -76.2646 -12.5239 24.1539
rtibia 108.863
rfoot -6.67544 5.56379
rtoes 7.85756
lfemur -75.1527 16.0199 -14.2058
ltibia 111.475
lfoot -13.4056 -16.0486
ltoes -11.6757
1855
root 1.6893 9.744 -5.55642 -198.078 174.144 -180.914
lowerback 28.6329 1.43603 -2.3105
upperback 10.8924 1.34944 0.905759
thorax -3.64015 0.616246 1.90642
lowerneck -18.2738 0.794308 -10.2514
upperneck 28.6744 4.15536 1.31038
head 12.3313 0.91214 2.88995
rclavicle -2.5842e-015 -5.61567e-015
rhumerus -35.0525 32.7985 -84.2344
rradius 96.2553
rwrist 43.263
rhand -45.8558 20.9991
rfingers 7.12502
rthumb -18.607 -8.13095
lclavicle -2.5842e-015 -5.61567e-015
lhumerus -29.4401 -26.2266 87.6915
lradius 88.6139
lwrist -18.4155
lhand -39.1686 10.1521
lfingers 7.12502
lthumb -12.1662 39.7783
rfemur -76.2047 -12.507 23.8697
rtibia 108.939
rfoot -6.74426 5.7068
rtoes 8.16352
lfemur -75.4337 15.9579 -14.6253
ltibia 111.698
lfoot -12.5743 -15.5578
ltoes -11.4517
1856
root 1.67718 9.7458 -5.55133 -198.132 174.112 -180.836
lowerback 28.6664 1.42712 -2.30242
upperback 10.9418 1.35062 1.06436
thorax -3.60363 0.612859 2.07593
lowerneck -18.26 0.721972 -10.3766
upperneck 28.5599 4.08177 1.31769
head 12.2863 0.872684 2.8992
rclavicle -3.56182e-015 -1.52785e-014
rhumerus -34.8034 32.8086 -83.932
rradius 96.4652
rwrist 43.3487
rhand -45.568 20.714
rfingers 7.12502
rthumb -18.3301 -8.44237
lclavicle -3.56182e-015 -1.52785e-014
lhumerus -29.5589 -26.0626 87.9749
lradius 88.6779
lwrist -18.6221
lhand -38.9432 9.83853
lfingers 7.12502
lthumb -11.9489 39.4775
rfemur -76.05 -12.3411 23.7517
rtibia 108.995
rfoot -7.02213 5.7582
rtoes 8.99275
lfemur -75.6989 16.0143 -14.8662
ltibia 111.955
lfoot -11.9006 -15.2114
ltoes -11.3602
1857
root 1.66766 9.74849 -5.54764 -198.207 174.178 -181.184
lowerback 28.6851 1.33068 -1.81688
upperback 10.9711 1.37032 1.29965
thorax -3.57884 0.62824 2.04947
lowerneck -18.3022 0.666424 -10.4069
upperneck 28.5864 4.01052 1.34436
head 12.3094 0.839952 2.90547
rclavicle -1.37286e-014 -1.44616e-014
rhumerus -34.6307 32.7571 -83.7576
rradius 96.6037
rwrist 43.3604
rhand -44.752 20.2016
rfingers 7.12502
rthumb -17.545 -9.02674
lclavicle -1.37286e-014 -1.44616e-014
lhumerus -29.6027 -26.1154 88.2084
lradius 88.7371
lwrist -18.4647
lhand -39.1013 9.88833
lfingers 7.12502
lthumb -12.1013 39.5184
rfemur -75.8331 -12.0903 24.14
rtibia 108.968
rfoot -7.42901 5.68133
rtoes 8.54634
lfemur -76.2565 16.1936 -14.7426
ltibia 112.211
lfoot -11.083 -15.0114
ltoes -11.4981
1858
root 1.65983 9.75516 -5.54486 -198.092 174.146 -181.136
lowerback 28.5389 1.30992 -1.6909
upperback 10.9715 1.38573 1.39448
thorax -3.51196 0.63657 2.07784
lowerneck -18.3997 0.643762 -10.2217
upperneck 28.7128 3.94867 1.30705
head 12.388 0.820906 2.85677
rclavicle 1.42876e-014 -1.94809e-014
rhumerus -34.4221 32.65 -83.5878
rradius 96.7183
rwrist 43.1428
rhand -43.5548 19.897
rfingers 7.12502
rthumb -16.3926 -9.4303
lclavicle 1.42876e-014 -1.94809e-014
lhumerus -29.6289 -26.357 88.344
lradius 88.8043
lwrist -18.3318
lhand -39.4521 9.86929
lfingers 7.12502
lthumb -12.4396 39.4791
rfemur -75.8323 -11.9523 24.1466
rtibia 108.93
rfoot -7.60909 5.58329
rtoes 8.16265
lfemur -76.9883 16.2207 -15.1647
ltibia 112.353
lfoot -10.1736 -14.6183
ltoes -12.1911
